<svg width="612" height="792" viewBox="0 0 612 792" fill="none" xmlns="http://www.w3.org/2000/svg">
<g>
<rect width="612" height="792" fill="#F4F4F2"/>
<g width="191" height="280">
<path d="M311.838 285.808C278.141 285.808 250.727 258.454 250.727 224.836V205.726C250.727 204.426 251.786 203.373 253.088 203.373C254.394 203.373 255.452 204.426 255.452 205.726V224.836C255.452 255.859 280.747 281.097 311.838 281.097C342.928 281.097 368.225 255.859 368.225 224.836V107.567C368.225 106.265 369.282 105.21 370.587 105.21C371.892 105.21 372.95 106.265 372.95 107.567V224.836C372.95 258.454 345.534 285.808 311.838 285.808Z" fill="#20BCC8"/>
<path d="M264.895 191.593C264.895 192.895 263.839 193.949 262.533 193.949C261.231 193.949 260.172 192.895 260.172 191.593C260.172 190.292 261.231 189.237 262.533 189.237C263.839 189.237 264.895 190.292 264.895 191.593Z" fill="#3C83B2"/>
<path d="M274.341 203.371C274.341 204.673 273.283 205.727 271.98 205.727C270.675 205.727 269.616 204.673 269.616 203.371C269.616 202.069 270.675 201.015 271.98 201.015C273.283 201.015 274.341 202.069 274.341 203.371Z" fill="#2B57A8"/>
<path d="M311.838 248.118C298.972 248.118 288.507 237.674 288.507 224.839V217.506C288.507 216.204 289.562 215.152 290.868 215.152C292.171 215.152 293.229 216.204 293.229 217.506V224.839C293.229 235.074 301.575 243.406 311.838 243.406C322.1 243.406 330.448 235.074 330.448 224.839V91.0766C330.448 89.774 331.507 88.7205 332.812 88.7205C334.117 88.7205 335.174 89.774 335.174 91.0766V224.839C335.174 237.674 324.705 248.118 311.838 248.118Z" fill="#D920A2"/>
<path d="M283.785 197.484C283.785 198.785 282.727 199.84 281.424 199.84C280.119 199.84 279.06 198.785 279.06 197.484C279.06 196.184 280.119 195.128 281.424 195.128C282.727 195.128 283.785 196.184 283.785 197.484ZM311.838 257.54C293.765 257.54 279.059 242.871 279.059 224.838V219.861C279.059 218.559 280.118 217.506 281.421 217.506C282.726 217.506 283.782 218.559 283.782 219.861V224.838C283.782 240.273 296.371 252.829 311.838 252.829C327.307 252.829 339.893 240.273 339.893 224.838V86.3645C339.893 85.0643 340.951 84.0084 342.254 84.0084C343.559 84.0084 344.618 85.0643 344.618 86.3645V224.838C344.618 242.871 329.912 257.54 311.838 257.54Z" fill="#821293"/>
<path d="M281.424 215.151C280.119 215.151 279.063 214.095 279.063 212.795V205.727C279.063 204.425 280.119 203.371 281.424 203.371C282.727 203.371 283.785 204.425 283.785 205.727V212.795C283.785 214.095 282.727 215.151 281.424 215.151Z" fill="#821293"/>
<path d="M293.229 209.261C293.229 210.564 292.171 211.617 290.868 211.617C289.562 211.617 288.507 210.564 288.507 209.261C288.507 207.96 289.562 206.905 290.868 206.905C292.171 206.905 293.229 207.96 293.229 209.261Z" fill="#D920A2"/>
<path d="M311.838 266.963C288.556 266.963 269.619 248.066 269.619 224.837V211.621C269.619 210.319 270.675 209.265 271.98 209.265C273.283 209.265 274.339 210.319 274.339 211.621V224.837C274.339 245.469 291.16 262.252 311.838 262.252C332.516 262.252 349.335 245.469 349.335 224.837V98.1447C349.335 96.8446 350.394 95.7887 351.697 95.7887C353.002 95.7887 354.061 96.8446 354.061 98.1447V224.837C354.061 248.066 335.121 266.963 311.838 266.963Z" fill="#2B57A8"/>
<path d="M262.533 209.261C261.231 209.261 260.172 208.208 260.172 206.905V199.838C260.172 198.536 261.231 197.482 262.533 197.482C263.839 197.482 264.895 198.536 264.895 199.838V206.905C264.895 208.208 263.839 209.261 262.533 209.261Z" fill="#3C83B2"/>
<path d="M311.838 276.386C283.352 276.386 260.174 253.26 260.174 224.837V213.974C260.174 212.676 261.231 211.617 262.536 211.617C263.836 211.617 264.895 212.676 264.895 213.974V224.837C264.895 250.663 285.953 271.674 311.838 271.674C337.724 271.674 358.78 250.663 358.78 224.837V93.4327C358.78 92.1325 359.839 91.0767 361.144 91.0767C362.445 91.0767 363.506 92.1325 363.506 93.4327V224.837C363.506 253.26 340.325 276.386 311.838 276.386Z" fill="#3C83B2"/>
<path d="M255.451 197.484C255.451 198.785 254.394 199.84 253.089 199.84C251.786 199.84 250.728 198.785 250.728 197.484C250.728 196.184 251.786 195.128 253.089 195.128C254.394 195.128 255.451 196.184 255.451 197.484Z" fill="#20BCC8"/>
<path d="M246.006 185.7C246.006 187.002 244.95 188.055 243.645 188.055C242.34 188.055 241.284 187.002 241.284 185.7C241.284 184.4 242.34 183.344 243.645 183.344C244.95 183.344 246.006 184.4 246.006 185.7ZM311.838 295.231C272.937 295.231 241.285 263.652 241.285 224.837V208.083C241.285 206.783 242.343 205.727 243.646 205.727C244.951 205.727 246.007 206.783 246.007 208.083V224.837C246.007 261.053 275.538 290.519 311.838 290.519C348.14 290.519 377.667 261.053 377.667 224.837V102.854C377.667 101.557 378.727 100.501 380.029 100.501C381.335 100.501 382.393 101.557 382.393 102.854V224.837C382.393 263.652 350.741 295.231 311.838 295.231ZM243.645 203.371C242.34 203.371 241.284 202.318 241.284 201.015V193.948C241.284 192.648 242.34 191.592 243.645 191.592C244.951 191.592 246.007 192.648 246.007 193.948V201.015C246.007 202.318 244.951 203.371 243.645 203.371Z" fill="#33CC99"/>
<path d="M250.633 311.278C241.086 311.278 233.347 319.003 233.347 328.526C233.347 338.052 241.086 345.772 250.633 345.772C260.177 345.772 267.918 338.052 267.918 328.526C267.918 319.003 260.177 311.278 250.633 311.278ZM250.633 337.876C245.452 337.876 241.257 333.69 241.257 328.526C241.257 323.359 245.452 319.174 250.633 319.174C255.811 319.174 260.006 323.359 260.006 328.526C260.006 333.69 255.811 337.876 250.633 337.876ZM222.271 304.582V331.671C222.271 336.197 220.458 338.141 216.436 338.141C215.076 338.141 213.45 337.869 212.496 337.417L210 343.428C211.832 344.825 214.903 345.772 218.187 345.772C223.761 345.772 230.183 343.443 230.183 333.934V300.016L222.271 304.582ZM388.014 339.267V321.883C388.014 312.51 380.897 311.072 373.783 311.072C366.541 311.072 359.69 314.068 359.69 321.819L367.651 322.141C367.651 318.564 369.151 317.198 373.783 317.198C377.248 317.198 380.052 318.107 380.052 321.361V322.339C378.028 323.055 374.308 323.709 371.433 324.289L368.104 324.945C363.213 325.918 358.057 328.783 358.057 335.23C358.057 341.613 363.018 345.584 369.286 345.584C373.398 345.584 376.984 344.28 380.052 341.805C380.052 342.653 380.311 344.022 380.836 344.805H389.253C388.795 344.088 388.014 342.653 388.014 339.267ZM380.052 333.021C380.052 337.247 375.289 339.075 371.569 339.075C368.697 339.075 366.412 337.446 366.412 334.972C366.412 331.842 368.892 330.999 371.891 330.417L376.268 329.503C377.698 329.24 379.006 328.852 380.052 328.326V333.021ZM299.859 344.793H291.947V340.943C291.553 341.531 290.766 342.572 289.394 343.486C287.434 344.924 284.427 345.771 281.876 345.771C278.146 345.771 274.942 344.076 273.307 341.857C271.278 339.118 271.278 335.595 271.278 331.35V311.608H279.064V328.804C279.064 331.219 279.064 332.851 279.325 333.767C280.042 336.634 282.139 338.141 284.686 338.141C287.237 338.141 289.593 336.634 290.704 334.487C291.947 332.072 291.947 328.743 291.947 326.328V311.608H299.859V344.793ZM326.849 311.608H334.764V316.106C335.155 315.521 335.94 314.477 337.313 313.565C339.275 312.128 342.282 311.28 344.835 311.28C348.564 311.28 351.767 312.973 353.4 315.194C355.424 317.934 355.424 321.457 355.424 325.702V344.793H347.648V328.24C347.648 325.828 347.648 324.196 347.384 323.287C346.66 320.41 344.572 318.912 342.023 318.912C339.469 318.912 337.115 320.41 336.005 322.564C334.764 324.979 334.764 328.308 334.764 330.722V344.793H326.849V311.608ZM313.073 326.578C313.073 321.858 317.48 318.217 322.122 319.072L325.276 311.488C318.716 310.574 314.818 313.039 313.073 315.3V311.607H305.161V344.794H313.073V326.578ZM392.841 304.591V344.793H400.753V300.031L392.841 304.591ZM304.715 349.288H314.081V350.709H310.205V361.032H308.575V350.709H304.715V349.288ZM317.45 353.487C317.071 353.487 316.733 353.553 316.438 353.684C316.143 353.816 315.889 353.998 315.679 354.228C315.467 354.461 315.299 354.734 315.171 355.05C315.046 355.365 314.962 355.712 314.919 356.091H319.839C319.797 355.271 319.573 354.632 319.167 354.173C318.761 353.716 318.189 353.487 317.45 353.487ZM317.53 361.269C316.875 361.269 316.293 361.153 315.782 360.922C315.27 360.691 314.834 360.372 314.476 359.966C314.117 359.562 313.846 359.088 313.661 358.547C313.476 358.004 313.385 357.422 313.385 356.802C313.385 356.192 313.482 355.616 313.678 355.073C313.872 354.531 314.146 354.058 314.5 353.652C314.853 353.248 315.28 352.93 315.782 352.697C316.281 352.466 316.838 352.35 317.45 352.35C318.083 352.35 318.642 352.466 319.127 352.697C319.612 352.93 320.024 353.25 320.361 353.661C320.709 354.081 320.97 354.587 321.144 355.176C321.318 355.765 321.406 356.423 321.406 357.149H314.888C314.919 357.56 314.998 357.944 315.125 358.302C315.251 358.659 315.425 358.969 315.647 359.233C315.868 359.495 316.137 359.701 316.454 359.849C316.77 359.996 317.134 360.069 317.545 360.069C318.136 360.069 318.624 359.94 319.009 359.683C319.394 359.425 319.654 359.069 319.792 358.616H321.232C321.042 359.407 320.622 360.045 319.973 360.535C319.326 361.024 318.51 361.269 317.53 361.269ZM326.657 361.269C326.025 361.269 325.452 361.153 324.941 360.922C324.43 360.691 323.994 360.372 323.636 359.966C323.277 359.562 323.001 359.088 322.805 358.547C322.61 358.004 322.513 357.422 322.513 356.802C322.513 356.192 322.61 355.616 322.805 355.073C323.001 354.531 323.277 354.058 323.636 353.652C323.994 353.248 324.43 352.93 324.941 352.697C325.452 352.466 326.025 352.35 326.657 352.35C327.68 352.35 328.511 352.617 329.15 353.148C329.787 353.679 330.18 354.402 330.328 355.318H328.857C328.751 354.761 328.514 354.323 328.145 354.008C327.775 353.692 327.28 353.534 326.657 353.534C326.225 353.534 325.843 353.618 325.511 353.787C325.178 353.955 324.902 354.187 324.68 354.482C324.459 354.776 324.293 355.123 324.182 355.523C324.071 355.923 324.016 356.349 324.016 356.802C324.016 357.266 324.071 357.693 324.182 358.088C324.293 358.483 324.459 358.827 324.68 359.122C324.902 359.416 325.178 359.649 325.511 359.817C325.843 359.985 326.225 360.069 326.657 360.069C327.322 360.069 327.847 359.887 328.232 359.524C328.617 359.161 328.836 358.664 328.889 358.032H330.344C330.249 359.054 329.882 359.848 329.244 360.416C328.606 360.985 327.744 361.269 326.657 361.269M333.286 353.077C333.276 353.34 333.265 353.576 333.254 353.787H333.303C333.619 353.334 333.995 352.981 334.433 352.73C334.871 352.477 335.401 352.35 336.023 352.35C336.92 352.35 337.621 352.587 338.128 353.061C338.633 353.534 338.887 354.219 338.887 355.113V361.032H337.432V355.287C337.432 354.739 337.265 354.319 336.933 354.024C336.601 353.73 336.144 353.582 335.565 353.582C335.238 353.582 334.935 353.637 334.655 353.747C334.375 353.858 334.135 354.013 333.935 354.213C333.734 354.413 333.579 354.655 333.468 354.94C333.358 355.223 333.303 355.534 333.303 355.871V361.032H331.83V349.288H333.303V352.366C333.303 352.577 333.297 352.813 333.286 353.077ZM342.319 353.756H342.368C342.673 353.323 343.041 352.981 343.474 352.73C343.906 352.477 344.434 352.35 345.056 352.35C345.952 352.35 346.654 352.587 347.161 353.061C347.667 353.534 347.921 354.219 347.921 355.113V361.032H346.465V355.287C346.465 354.739 346.298 354.319 345.966 354.024C345.633 353.73 345.178 353.582 344.598 353.582C344.271 353.582 343.967 353.637 343.688 353.747C343.409 353.858 343.169 354.013 342.968 354.213C342.767 354.413 342.613 354.655 342.502 354.94C342.391 355.223 342.336 355.534 342.336 355.871V361.032H340.864V352.556H342.319V353.756ZM353.583 360.069C354.016 360.069 354.398 359.985 354.73 359.817C355.063 359.649 355.34 359.416 355.56 359.122C355.783 358.827 355.948 358.483 356.059 358.088C356.17 357.693 356.226 357.266 356.226 356.802C356.226 356.349 356.17 355.923 356.059 355.523C355.948 355.123 355.783 354.773 355.56 354.473C355.34 354.173 355.063 353.94 354.73 353.771C354.398 353.603 354.016 353.519 353.583 353.519C353.151 353.519 352.768 353.603 352.436 353.771C352.104 353.94 351.828 354.173 351.605 354.473C351.385 354.773 351.219 355.123 351.108 355.523C350.997 355.923 350.941 356.349 350.941 356.802C350.941 357.266 350.997 357.693 351.108 358.088C351.219 358.483 351.385 358.827 351.605 359.122C351.828 359.416 352.104 359.649 352.436 359.817C352.768 359.985 353.151 360.069 353.583 360.069ZM353.599 361.269C352.956 361.269 352.378 361.153 351.867 360.922C351.355 360.691 350.92 360.372 350.561 359.966C350.203 359.562 349.927 359.088 349.731 358.546C349.536 358.004 349.439 357.422 349.439 356.802C349.439 356.192 349.536 355.615 349.731 355.073C349.927 354.531 350.203 354.058 350.561 353.652C350.92 353.248 351.355 352.93 351.867 352.697C352.378 352.466 352.956 352.35 353.599 352.35C354.242 352.35 354.818 352.466 355.324 352.697C355.83 352.93 356.262 353.248 356.621 353.652C356.979 354.058 357.254 354.531 357.444 355.073C357.634 355.615 357.729 356.192 357.729 356.802C357.729 357.422 357.634 358.004 357.444 358.546C357.254 359.088 356.979 359.562 356.621 359.966C356.262 360.372 355.83 360.691 355.324 360.922C354.818 361.153 354.242 361.269 353.599 361.269ZM359.342 349.288H360.814V361.032H359.342V349.288ZM366.571 360.069C367.004 360.069 367.386 359.985 367.719 359.817C368.051 359.649 368.328 359.416 368.549 359.122C368.771 358.827 368.937 358.483 369.048 358.088C369.158 357.693 369.214 357.266 369.214 356.802C369.214 356.349 369.158 355.923 369.048 355.523C368.937 355.123 368.771 354.773 368.549 354.473C368.328 354.173 368.051 353.94 367.719 353.771C367.386 353.603 367.004 353.519 366.571 353.519C366.138 353.519 365.756 353.603 365.425 353.771C365.093 353.94 364.816 354.173 364.594 354.473C364.372 354.773 364.207 355.123 364.096 355.523C363.985 355.923 363.929 356.349 363.929 356.802C363.929 357.266 363.985 357.693 364.096 358.088C364.207 358.483 364.372 358.827 364.594 359.122C364.816 359.416 365.093 359.649 365.425 359.817C365.756 359.985 366.138 360.069 366.571 360.069ZM366.588 361.269C365.944 361.269 365.367 361.153 364.855 360.922C364.343 360.691 363.909 360.372 363.55 359.966C363.191 359.562 362.914 359.088 362.72 358.546C362.525 358.004 362.426 357.422 362.426 356.802C362.426 356.192 362.525 355.615 362.72 355.073C362.914 354.531 363.191 354.058 363.55 353.652C363.909 353.248 364.343 352.93 364.855 352.697C365.367 352.466 365.944 352.35 366.588 352.35C367.231 352.35 367.805 352.466 368.313 352.697C368.818 352.93 369.251 353.248 369.609 353.652C369.968 354.058 370.242 354.531 370.432 355.073C370.622 355.615 370.716 356.192 370.716 356.802C370.716 357.422 370.622 358.004 370.432 358.546C370.242 359.088 369.968 359.562 369.609 359.966C369.251 360.372 368.818 360.691 368.313 360.922C367.805 361.153 367.231 361.269 366.588 361.269ZM375.811 359.453C376.274 359.453 376.665 359.377 376.982 359.224C377.299 359.072 377.553 358.861 377.749 358.593C377.944 358.325 378.084 358.006 378.169 357.638C378.252 357.27 378.294 356.87 378.294 356.438C378.294 355.544 378.092 354.842 377.686 354.331C377.279 353.821 376.649 353.565 375.795 353.565C375.015 353.565 374.429 353.835 374.04 354.371C373.649 354.908 373.454 355.623 373.454 356.518C373.454 357.422 373.654 358.138 374.055 358.665C374.456 359.19 375.041 359.453 375.811 359.453ZM375.875 364C374.756 364 373.889 363.791 373.272 363.376C372.655 362.96 372.304 362.374 372.219 361.616H373.597C373.66 362.058 373.891 362.376 374.292 362.571C374.693 362.766 375.21 362.863 375.843 362.863C376.602 362.863 377.185 362.692 377.591 362.35C377.997 362.007 378.2 361.474 378.2 360.748V360.511C378.2 360.269 378.203 360.04 378.208 359.825C378.213 359.609 378.221 359.433 378.232 359.296H378.2C377.904 359.717 377.559 360.048 377.164 360.29C376.768 360.532 376.269 360.653 375.669 360.653C375.13 360.653 374.632 360.554 374.174 360.352C373.715 360.153 373.322 359.869 372.995 359.501C372.668 359.133 372.413 358.696 372.228 358.191C372.043 357.685 371.951 357.123 371.951 356.502C371.951 355.849 372.045 355.265 372.236 354.75C372.425 354.234 372.686 353.8 373.019 353.447C373.351 353.095 373.738 352.824 374.182 352.634C374.625 352.445 375.094 352.35 375.589 352.35C376.201 352.35 376.716 352.464 377.132 352.69C377.549 352.916 377.894 353.245 378.169 353.676H378.2V352.556H379.656V360.685C379.656 361.252 379.565 361.745 379.387 362.16C379.207 362.576 378.954 362.92 378.627 363.194C378.289 363.468 377.889 363.67 377.424 363.803C376.961 363.934 376.443 364 375.875 364ZM381.696 352.556H383.168V361.032H381.696V352.556ZM381.664 349.288H383.2V350.993H381.664V349.288ZM388.799 353.487C388.42 353.487 388.082 353.553 387.787 353.684C387.492 353.816 387.238 353.998 387.027 354.228C386.816 354.461 386.648 354.734 386.521 355.05C386.395 355.365 386.31 355.712 386.268 356.091H391.188C391.147 355.271 390.922 354.632 390.516 354.173C390.111 353.716 389.538 353.487 388.799 353.487ZM388.878 361.269C388.225 361.269 387.643 361.153 387.131 360.922C386.619 360.691 386.184 360.372 385.825 359.966C385.466 359.562 385.195 359.088 385.011 358.547C384.826 358.004 384.733 357.422 384.733 356.802C384.733 356.192 384.832 355.616 385.026 355.073C385.221 354.531 385.496 354.058 385.849 353.652C386.202 353.248 386.629 352.93 387.131 352.697C387.631 352.466 388.188 352.35 388.799 352.35C389.432 352.35 389.992 352.466 390.476 352.697C390.962 352.93 391.373 353.25 391.71 353.661C392.058 354.081 392.32 354.587 392.494 355.176C392.668 355.765 392.754 356.423 392.754 357.149H386.236C386.268 357.56 386.347 357.944 386.474 358.302C386.601 358.659 386.775 358.969 386.996 359.233C387.218 359.495 387.486 359.701 387.803 359.849C388.12 359.996 388.483 360.069 388.895 360.069C389.485 360.069 389.972 359.94 390.358 359.683C390.743 359.425 391.004 359.069 391.142 358.616H392.58C392.391 359.407 391.972 360.045 391.323 360.535C390.674 361.024 389.86 361.269 388.878 361.269ZM397.58 361.284C396.398 361.284 395.486 361.03 394.843 360.52C394.2 360.009 393.847 359.322 393.784 358.459H395.271C395.312 358.764 395.402 359.023 395.539 359.233C395.676 359.444 395.848 359.612 396.053 359.738C396.259 359.863 396.494 359.956 396.757 360.014C397.02 360.072 397.306 360.101 397.611 360.101C398.287 360.101 398.775 359.971 399.075 359.714C399.375 359.456 399.526 359.137 399.526 358.758C399.526 358.296 399.343 357.972 398.98 357.788C398.615 357.604 398.059 357.438 397.311 357.291C396.9 357.207 396.501 357.113 396.116 357.007C395.731 356.901 395.394 356.759 395.104 356.58C394.814 356.401 394.582 356.164 394.408 355.87C394.234 355.576 394.147 355.197 394.147 354.734C394.147 354.008 394.418 353.431 394.962 353.006C395.505 352.579 396.272 352.366 397.263 352.366C398.329 352.366 399.135 352.593 399.685 353.044C400.233 353.497 400.554 354.092 400.65 354.829H399.178C399.114 354.387 398.927 354.05 398.615 353.819C398.305 353.587 397.844 353.471 397.232 353.471C396.652 353.471 396.232 353.587 395.974 353.819C395.715 354.05 395.587 354.329 395.587 354.655C395.587 354.876 395.636 355.057 395.736 355.199C395.837 355.342 395.984 355.46 396.18 355.555C396.375 355.649 396.612 355.729 396.892 355.792C397.171 355.854 397.491 355.923 397.849 355.997C398.27 356.082 398.672 356.176 399.052 356.281C399.431 356.387 399.765 356.533 400.056 356.723C400.346 356.912 400.576 357.162 400.744 357.473C400.913 357.783 400.998 358.186 400.998 358.68C400.998 359.111 400.913 359.49 400.744 359.817C400.576 360.142 400.341 360.414 400.04 360.629C399.74 360.845 399.377 361.008 398.957 361.119C398.535 361.229 398.076 361.284 397.58 361.284" fill="#2C2829"/>
</g>
</g>
</svg>
