<svg xmlns="http://www.w3.org/2000/svg" width="14.88" height="16" viewBox="0 0 14.88 16">
  <style>
    path { fill: #000; }
    @media (prefers-color-scheme: dark) { path { fill: #fff; } }
  </style>
<path fill="#000" d="M13 11L13 11Q13 10.6 12.8 10.4L12.8 10.4L10.9 8.5Q10.6 8.3 10.3 8.3L10.3 8.3Q9.9 8.3 9.6 8.6L9.6 8.6Q9.7 8.6 9.8 8.7L9.8 8.7Q10.0 8.9 10 8.9L10 8.9Q10.0 9.0 10.1 9.1L10.1 9.1Q10.2 9.2 10.3 9.3L10.3 9.3Q10.3 9.4 10.3 9.6L10.3 9.6Q10.3 9.9 10.0 10.2L10.0 10.2Q9.8 10.4 9.4 10.4L9.4 10.4Q9.3 10.4 9.2 10.4L9.2 10.4Q9.1 10.4 9.0 10.3L9.0 10.3Q8.8 10.2 8.8 10.1L8.8 10.1Q8.7 10.1 8.6 10.0L8.6 10.0Q8.5 9.8 8.4 9.8L8.4 9.8Q8.1 10.1 8.1 10.4L8.1 10.4Q8.1 10.8 8.4 11.0L8.4 11.0L10.2 12.9Q10.5 13.1 10.8 13.1L10.8 13.1Q11.2 13.1 11.4 12.9L11.4 12.9L12.8 11.6Q13 11.3 13 11L13 11ZM6.7 4.7L6.7 4.7Q6.7 4.3 6.5 4.1L6.5 4.1L4.6 2.3Q4.4 2 4.0 2L4.0 2Q3.7 2 3.4 2.2L3.4 2.2L2.1 3.5Q1.9 3.8 1.9 4.1L1.9 4.1Q1.9 4.5 2.1 4.8L2.1 4.8L4.0 6.6Q4.2 6.8 4.6 6.8L4.6 6.8Q5.0 6.8 5.2 6.6L5.2 6.6Q5.2 6.5 5.0 6.4L5.0 6.4Q4.9 6.3 4.9 6.2L4.9 6.2Q4.8 6.2 4.7 6.0L4.7 6.0Q4.6 5.9 4.6 5.8L4.6 5.8Q4.6 5.7 4.6 5.6L4.6 5.6Q4.6 5.2 4.8 5.0L4.8 5.0Q5.1 4.7 5.4 4.7L5.4 4.7Q5.6 4.7 5.7 4.8L5.7 4.8Q5.8 4.8 5.9 4.9L5.9 4.9Q6.0 5.0 6.1 5L6.1 5Q6.1 5.0 6.3 5.2L6.3 5.2Q6.4 5.3 6.4 5.4L6.4 5.4Q6.7 5.1 6.7 4.7L6.7 4.7ZM14.7 11L14.7 11Q14.7 12.1 14.0 12.8L14.0 12.8L12.6 14.1Q11.9 14.9 10.8 14.9L10.8 14.9Q9.8 14.9 9.0 14.1L9.0 14.1L7.2 12.3Q6.4 11.5 6.4 10.4L6.4 10.4Q6.4 9.3 7.2 8.6L7.2 8.6L6.4 7.8Q5.7 8.6 4.6 8.6L4.6 8.6Q3.5 8.6 2.8 7.8L2.8 7.8L0.9 6.0Q0.1 5.2 0.1 4.1L0.1 4.1Q0.1 3.1 0.9 2.3L0.9 2.3L2.2 1.0Q3.0 0.3 4.0 0.3L4.0 0.3Q5.1 0.3 5.8 1.0L5.8 1.0L7.7 2.9Q8.4 3.6 8.4 4.7L8.4 4.7Q8.4 5.8 7.6 6.6L7.6 6.6L8.4 7.4Q9.2 6.6 10.3 6.6L10.3 6.6Q11.4 6.6 12.1 7.3L12.1 7.3L14.0 9.2Q14.7 9.9 14.7 11L14.7 11Z" />
      </svg>
