<svg xmlns="http://www.w3.org/2000/svg" width="16" height="16" viewBox="0 0 16 16">
  <style>
    path { fill: #000; }
    @media (prefers-color-scheme: dark) { path { fill: #fff; } }
  </style>
<path fill="#000" d="M12.2 9.7L12.2 8.4L2.4 8.4L2.4 9.7L12.2 9.7ZM10.9 12.2L10.9 12.2L10.9 10.9L2.4 10.9L2.4 12.2L10.9 12.2ZM7.3 7.5L7.3 7.5Q7.7 7.5 8.0 7.2Q8.3 6.9 8.3 6.5L8.3 6.5Q8.3 6.1 8.0 5.8Q7.7 5.5 7.3 5.5L7.3 5.5Q6.9 5.5 6.6 5.8Q6.3 6.1 6.3 6.5L6.3 6.5Q6.3 6.9 6.6 7.2Q6.9 7.5 7.3 7.5ZM11.1 4.8L11.1 4.8L1.6 4.8L1.6 13.4L10.8 13.4L13.0 11.6L13.0 5.9L14.0 4.8L14.0 11.9L11.1 14.4L0.5 14.4L0.5 3.7L12.0 3.7L11.1 4.8ZM10.3 6.3L10.3 6.3L14.2 1.9Q14.2 1.9 14.5 1.7Q14.8 1.4 15.2 1.8L15.2 1.8Q15.6 2.1 15.4 2.5Q15.2 2.8 15.2 2.8L15.2 2.8L11.4 7.2L10.1 8.0Q10.1 8.0 9.8 8.1Q9.6 8.1 9.8 7.7L9.8 7.7Q9.9 7.2 10.1 6.7Q10.3 6.3 10.3 6.3L10.3 6.3Z" />
      </svg>
