<svg xmlns="http://www.w3.org/2000/svg" width="16" height="16" viewBox="0 0 16 16">
  <style>
    path { fill: #000; }
    @media (prefers-color-scheme: dark) { path { fill: #fff; } }
  </style>
<path fill="#000" d="M16 6.5L16 6.5L16 13.6Q16 14.2 15.6 14.6L15.6 14.6Q15.2 15 14.6 15L14.6 15L1.4 15Q0.8 15 0.4 14.6L0.4 14.6Q0 14.2 0 13.6L0 13.6L0 6.5Q0.4 6.9 0.9 7.3L0.9 7.3Q4.1 9.5 5.3 10.3L5.3 10.3Q5.8 10.7 6.2 10.9L6.2 10.9Q6.5 11.1 7.0 11.4L7.0 11.4Q7.5 11.6 8.0 11.6L8.0 11.6L8.0 11.6Q8.5 11.6 9.0 11.4L9.0 11.4Q9.5 11.1 9.8 10.9L9.8 10.9Q10.2 10.7 10.7 10.3L10.7 10.3Q12.2 9.2 15.1 7.3L15.1 7.3Q15.6 6.9 16 6.5L16 6.5ZM16 3.9L16 3.9Q16 4.6 15.6 5.2L15.6 5.2Q15.1 5.8 14.5 6.3L14.5 6.3Q11.1 8.6 10.3 9.2L10.3 9.2Q10.2 9.3 9.9 9.5L9.9 9.5Q9.6 9.7 9.4 9.8L9.4 9.8Q9.2 10.0 9.0 10.1L9.0 10.1Q8.7 10.3 8.5 10.3L8.5 10.3Q8.2 10.4 8.0 10.4L8.0 10.4L8.0 10.4Q7.8 10.4 7.5 10.3L7.5 10.3Q7.3 10.3 7.0 10.1L7.0 10.1Q6.8 10.0 6.6 9.8L6.6 9.8Q6.4 9.7 6.1 9.5L6.1 9.5Q5.8 9.3 5.7 9.2L5.7 9.2Q4.9 8.6 3.4 7.6L3.4 7.6Q1.8 6.5 1.5 6.3L1.5 6.3Q1.0 5.9 0.5 5.3L0.5 5.3Q0 4.6 0 4.0L0 4.0Q0 3.4 0.4 2.9L0.4 2.9Q0.7 2.4 1.4 2.4L1.4 2.4L14.6 2.4Q15.2 2.4 15.6 2.8L15.6 2.8Q16 3.3 16 3.9L16 3.9Z" />
      </svg>
